# xmcd
#
# Track frame offsets:
#  182
#  11872
#  24672
#  35900
#  47792
#  62720
#  74652
#  86987
#  99417
#  127480
#  141182
#  151880
#  164975
#  176222
#  199965
#  213102
#  225787
#  236587
#  247495
#
# Disc length: 3482 seconds
#
# Revision: 0
# Processed by: cddbd v1.5.1PL2 Copyright (c) Steve Scherf et al.
# Submitted via: Collectorz.com_Music_Collector 6.11
#
DISCID=2b0d9813
DTITLE=Joe Liggins - The Honeydripper: Rare and Unreleased Recordings 1946-1949
DYEAR=1996
DGENRE=Blues - Jump Blues
TTITLE0=Gal With A Whole Lotta Loot
TTITLE1=What's The Reason You Don't Love Me
TTITLE2=Walkin'
TTITLE3=I Know My Love Is True
TTITLE4=Got A Right To Cry
TTITLE5=I Cover The Waterfront
TTITLE6=Loosiana
TTITLE7=Spooks Holiday
TTITLE8=The Honeydripper
TTITLE9=Down Home Blues
TTITLE10=Ten Toes
TTITLE11=The Blues
TTITLE12=Blow My Jackson
TTITLE13=Drippers Boogie Part 1
TTITLE14=Drippers Boogie Part 2
TTITLE15=Breaking My Heart
TTITLE16=Miss Betty's Blues
TTITLE17=Sugar Lump
TTITLE18=Tanya
EXTD=
EXTT0=
EXTT1=
EXTT2=
EXTT3=
EXTT4=
EXTT5=
EXTT6=
EXTT7=
EXTT8=
EXTT9=
EXTT10=
EXTT11=
EXTT12=
EXTT13=
EXTT14=
EXTT15=
EXTT16=
EXTT17=
EXTT18=
PLAYORDER=
